<svg width="100" height="53" viewBox="0 0 100 53" fill="none" xmlns="http://www.w3.org/2000/svg">
<rect x="1.5" y="1.5" width="50" height="50" rx="25" stroke="black" stroke-width="3"/>
<path d="M12.3807 20.8636H15.8636L18.8182 28.0682H18.9545L21.9091 20.8636H25.392V32.5H22.6534V25.3523H22.5568L19.7614 32.4261H18.0114L15.2159 25.3125H15.1193V32.5H12.3807V20.8636ZM27.1463 20.8636H30.6293L33.5838 28.0682H33.7202L36.6747 20.8636H40.1577V32.5H37.419V25.3523H37.3224L34.527 32.4261H32.777L29.9815 25.3125H29.8849V32.5H27.1463V20.8636Z" fill="black"/>
<path d="M65.6605 14.7727H68.2727L70.4886 20.1761H70.5909L72.8068 14.7727H75.419V23.5H73.3651V18.1392H73.2926L71.196 23.4446H69.8835L67.7869 18.1094H67.7145V23.5H65.6605V14.7727ZM76.7347 23.5V14.7727H82.82V16.4858H78.8441V18.2756H82.5089V19.9929H78.8441V21.7869H82.82V23.5H76.7347ZM83.8555 16.4858V14.7727H91.2319V16.4858H88.5856V23.5H86.506V16.4858H83.8555ZM93.06 23.5H90.793L93.7376 14.7727H96.5458L99.4904 23.5H97.2234L95.1737 16.9716H95.1055L93.06 23.5ZM92.7575 20.0653H97.4961V21.6676H92.7575V20.0653ZM65.6605 29.7727H68.2727L70.4886 35.1761H70.5909L72.8068 29.7727H75.419V38.5H73.3651V33.1392H73.2926L71.196 38.4446H69.8835L67.7869 33.1094H67.7145V38.5H65.6605V29.7727ZM78.8441 29.7727V38.5H76.7347V29.7727H78.8441ZM87.5959 29.7727V38.5H85.8061L82.3331 33.4631H82.2777V38.5H80.1683V29.7727H81.9837L85.4183 34.8011H85.4908V29.7727H87.5959ZM88.9222 38.5V29.7727H95.0075V31.4858H91.0316V33.2756H94.6964V34.9929H91.0316V36.7869H95.0075V38.5H88.9222Z" fill="black"/>
</svg>
